<svg id="Layer_1" data-name="Layer 1" xmlns="http://www.w3.org/2000/svg" viewBox="0 0 36 36"><defs><style>.cls-1{fill:#fff;}.cls-2{fill:#eb008b;}.cls-3{fill:#fff100;}.cls-4{fill:#00adee;}.cls-5,.cls-6,.cls-7{fill:#314168;}.cls-6{opacity:0.75;}.cls-7{opacity:0.5;}</style></defs><ellipse class="cls-1" cx="18" cy="18" rx="16.47" ry="17.28"/><path class="cls-2" d="M32.83,12.33a3,3,0,0,0-.14.42,2.93,2.93,0,0,1-.23.43,3.23,3.23,0,0,1-.7.73,3.73,3.73,0,0,1-1.87.68,4.74,4.74,0,0,1-3.57-1.06,5.68,5.68,0,0,1-.86-.84,2.36,2.36,0,0,1-.32-.44c0-.09-.21-.49-.13-.57a4.9,4.9,0,0,0,1.89,1.39,4,4,0,0,0,2.39.3A3.11,3.11,0,0,0,30.44,13a5,5,0,0,0,.93-.84,3.3,3.3,0,0,0,.65-1.1,1.94,1.94,0,0,0,.11-.63A2.11,2.11,0,0,0,32,10c.13-.07.39.24.47.34a1.59,1.59,0,0,1,.3.56A3.09,3.09,0,0,1,32.83,12.33Z"/><path class="cls-3" d="M26,13.76a5.81,5.81,0,0,0,.65.56,7,7,0,0,0,.69.41,5.14,5.14,0,0,0,1.5.52,4.09,4.09,0,0,0,1.67,0,5.07,5.07,0,0,0,1.57-.76c.08.11-.08.37-.13.47a2.42,2.42,0,0,1-.29.42,2.53,2.53,0,0,1-.77.57,3,3,0,0,1-.91.26,6.71,6.71,0,0,1-.9,0,2.44,2.44,0,0,0,.33.23,3.65,3.65,0,0,1,.35.14,2.22,2.22,0,0,1-1.17,0A4.12,4.12,0,0,1,27.46,16a3.25,3.25,0,0,1-1-1,4.17,4.17,0,0,1-.35-.66C26.1,14.26,25.92,13.84,26,13.76Z"/><path d="M28,17a2.77,2.77,0,0,1-2.62-1.12,1.77,1.77,0,0,1-.27-1.36,7.48,7.48,0,0,0,.18-.82,2.83,2.83,0,0,1,0-.65,4.38,4.38,0,0,1,.48,1.14,4.78,4.78,0,0,0,.43,1.29,3.11,3.11,0,0,0,.81.92C27.08,16.48,28,17,28,17Z"/><path class="cls-4" d="M29.34,9.32c.17-.07.52.06.68.1a1.51,1.51,0,0,1,.71.39,1.68,1.68,0,0,1,.44,1.52,1.76,1.76,0,0,1-.86,1.18,3,3,0,0,1-.74.33,1.81,1.81,0,0,1-.76.09c.15-.13.34-.23.49-.36l.4-.35a1.72,1.72,0,0,0,.59-1,1.57,1.57,0,0,0-.13-1.11A2.27,2.27,0,0,0,29.34,9.32Z"/><path class="cls-1" d="M22.28,1.79V1.73S22.3,1.78,22.28,1.79Z"/><polygon class="cls-5" points="16.56 29.95 8.5 26.02 8.49 26.03 8.72 26.6 9.31 28.05 16.57 31.59 23.57 28.08 24.16 26.61 24.4 26.02 16.56 29.95"/><polygon class="cls-6" points="9.79 29.22 10.38 30.7 16.57 33.71 22.49 30.74 23.1 29.24 16.56 32.52 9.79 29.22"/><polygon class="cls-7" points="16.56 34.47 10.77 31.64 11.16 32.63 16.57 35.26 21.7 32.69 22.11 31.69 16.56 34.47"/><path class="cls-5" d="M16.16,28.78l.44.21,0,0,7.21-3.57a2.39,2.39,0,0,0,.32-.11l.06-.08,0,0h0c2-2.34,2.11-5.77,1.33-7.16a31.54,31.54,0,0,0-3.13-4,5.11,5.11,0,0,1-.7-2.26,2.55,2.55,0,0,1,.77-2A9.83,9.83,0,0,1,22.87,13a.89.89,0,0,1,0,.22s-.05.08-.05.11.19.06.27.06a2.93,2.93,0,0,0,.66-.1c.11,0,.74-.14.75-.28s-.5,0-.62,0c.06-.19.29-.33.43-.44s.21-.12.16-.18-.21,0-.24,0-.5.11-.59,0,.15-.37.23-.44.31-.23.45-.36-.12-.08-.23,0-.37.12-.45.08-.1-.51-.1-.61c0-.73.37-1.73,1.14-1.87a.91.91,0,0,1,1,.41.32.32,0,0,1,0,.47,1.11,1.11,0,0,1-.4.43c.08,0,.28,0,.37,0a3.41,3.41,0,0,1,.46-.05c.17,0,.51,0,.64.12.32.37-.93.77-.83,1a2.91,2.91,0,0,1,1.46-.37c.35.05.19.35,0,.51s-.47.29-.68.47a2.45,2.45,0,0,0,.79-.15c.24-.06.5-.09.74-.13s.65,0,.72-.15,0-.23,0-.3,0-.24,0-.35,0-.33,0-.43-.16-.11-.27-.14A1.45,1.45,0,0,1,28,10a7.4,7.4,0,0,1-1-1.46,1.47,1.47,0,0,1-1-.2.73.73,0,0,1-.22-.51c0-.08-.06-.49.05-.51a.84.84,0,0,0,.66.72c.11,0,.32.09.43,0s.09-.41.1-.56a2,2,0,0,0,0-.68c-.05-.13-.22-.18-.33-.24-.31-.17-.7-.28-1-.48a3.6,3.6,0,0,1-1.54-1.55,7.83,7.83,0,0,1-.37-1.19c0-.21-.09-.42-.12-.64a1.63,1.63,0,0,0-.06-.5,1.55,1.55,0,0,0-.3.55,4.92,4.92,0,0,0-.21.65,3.86,3.86,0,0,0,.12,1.69,2.29,2.29,0,0,1-.61-.88,3.13,3.13,0,0,1-.22-1,3.49,3.49,0,0,1,0-1,5.3,5.3,0,0,1,.1-.55,1.2,1.2,0,0,0,.07-.46A4.54,4.54,0,0,0,21.5,4a3.47,3.47,0,0,0,.28,1.32,2.85,2.85,0,0,0,1,1.13c0,.06-.4.08-.5.1a2.47,2.47,0,0,0-.46.15,6.28,6.28,0,0,0-.92.5,3.63,3.63,0,0,0-.83.69c-.21.23-.38.58-.64.74A3.71,3.71,0,0,0,18,10.18a2.67,2.67,0,0,0-.44,1.73A3.25,3.25,0,0,1,19.1,10a3,3,0,0,1-.05.52c-.05.17-.25.32-.36.46a6.1,6.1,0,0,0-.7,1.11,5.45,5.45,0,0,0-.43,1.23,3,3,0,0,0-.08,1.23,5,5,0,0,0,.26-.68,3.61,3.61,0,0,1,.35-.6A4.37,4.37,0,0,1,19,12.08c0,.12,0,.28,0,.4a.63.63,0,0,1-.16.34,2.74,2.74,0,0,0-.39.76,2.91,2.91,0,0,0-.11,1.7c.09-.08.1-.36.14-.48s.09-.21.13-.31a1.63,1.63,0,0,1,.49-.59,3.68,3.68,0,0,1,.15.57c.07.22.15.43.23.64a7.09,7.09,0,0,0,1,1.58,5.78,5.78,0,0,1,1.17,2.52c.33,1.57-.49,3.83-3.25,4.71a2.13,2.13,0,0,1,.08-1.9,4,4,0,0,0,.15-.45c0-.1,0-.22.07-.32a.06.06,0,0,1,.09,0,1,1,0,0,1,.28.36,1.36,1.36,0,0,1,.1.21c0,.08,0,.27.11.33a2.07,2.07,0,0,0-.11-1.18,1.88,1.88,0,0,0-.28-.52.43.43,0,0,1-.12-.23,2.61,2.61,0,0,1,0-.28,3.35,3.35,0,0,1,.65.8,2.14,2.14,0,0,1,.25.41,3.71,3.71,0,0,0,.19.46,2,2,0,0,0-.07-.85,3.73,3.73,0,0,0-.32-.84,4.34,4.34,0,0,0-.5-.76c-.08-.1-.22-.19-.26-.31a.83.83,0,0,1,0-.27.05.05,0,0,1,.07-.06,2.27,2.27,0,0,1,.94,1.08.06.06,0,0,0,.11,0,2.37,2.37,0,0,0-.35-1,2.62,2.62,0,0,0-1-1c-.18-.11-.3-.35-.45-.51a2.79,2.79,0,0,0-.58-.46,5.67,5.67,0,0,0-.65-.33l-.32-.1-.25,0c-.05,0-.06-.06,0-.09a2,2,0,0,0,.57-.73,2.64,2.64,0,0,0,.17-.93,3.15,3.15,0,0,0-.8-1.9.86.86,0,0,0,0,.32c0,.13.06.26.09.39a3.05,3.05,0,0,1,0,.8,2.17,2.17,0,0,1-.13.56,2.45,2.45,0,0,1-.28.49.05.05,0,0,1-.09,0,2.4,2.4,0,0,0,0-1,3.29,3.29,0,0,0-.16-.44,1,1,0,0,0-.22-.38,1.31,1.31,0,0,0,0,.35c0,.15-.05.3-.07.45a6,6,0,0,1-.24.83,2.44,2.44,0,0,1-1,1.09c-.2.15-.47.23-.68.36s-.19.07-.22.16a1.29,1.29,0,0,0,0,.48c0,.1,0,.33.08.38s.22,0,.3,0a.59.59,0,0,0,.44-.51c.08,0,0,.29,0,.35a.45.45,0,0,1-.15.35.94.94,0,0,1-.67.16.05.05,0,0,0,0,0,4,4,0,0,1-.79,1.13A1.14,1.14,0,0,1,12,19a.13.13,0,0,0-.08.07c0,.07,0,.22,0,.29a2.08,2.08,0,0,1,0,.25,1.65,1.65,0,0,0,0,.21c0,.11.39.08.5.09s.35,0,.52.08.4.13.55.09a.75.75,0,0,0,.92-.18s-.19.09-.31,0a.47.47,0,0,1,0-.63,1.17,1.17,0,0,1,1.39-.76s1.4.38,1.09,1.58-2.72,1.42-3.21,2.69a8.94,8.94,0,0,0-2.66-2.79c-2.21-1.94,0-6,.66-6.16.37.43.94.08.94.08l.08,0a5.42,5.42,0,0,1,1.47-.61c.57-.11.79.26.5.75.56-.2.66-1.17.56-1.41a2,2,0,0,0-.36-.52l-.23.19h0s-.21.18-.27.07-.1-.41-.15-.45,0,.67-.13.72-.26-.34-.3-.46,0,.47-.06.63a2,2,0,0,1-.88.13c-1.07-.07-.5-1.31-.5-1.31a.78.78,0,0,1,.68-.56c.2,0,.26,0,.36.18a1,1,0,0,1,.15.46c.06-.05.09-.22.12-.29A2.6,2.6,0,0,1,13.4,11c.06-.13.18-.39.34-.42.4-.09.2,1,.4,1a2.49,2.49,0,0,1,.3-1.21c.17-.24.33,0,.38.19s0,.45.08.68a1.91,1.91,0,0,0,.19-.64c.06-.2.13-.4.2-.6s.26-.46.17-.58-.18-.06-.24-.09L15,9.18c-.08,0-.22-.15-.32-.15s-.14.08-.21.14a1.2,1.2,0,0,1-.54.27,6.56,6.56,0,0,1-1.47.17c-.13.27-.23.53-.54.66a.57.57,0,0,1-.46,0c-.06,0-.38-.15-.35-.24a.7.7,0,0,0,.78-.2c.07-.07.2-.2.18-.31s-.27-.22-.37-.29a1.77,1.77,0,0,0-.5-.28c-.11,0-.21.09-.3.15a8.27,8.27,0,0,1-.74.54,2.94,2.94,0,0,1-1.73.52,5.91,5.91,0,0,1-1-.19l-.51-.16a1.49,1.49,0,0,0-.4-.15,1.36,1.36,0,0,0,.29.43,3,3,0,0,0,.39.41A3.32,3.32,0,0,0,8.43,11a1.74,1.74,0,0,1-.88.1,2.64,2.64,0,0,1-.78-.2A2.75,2.75,0,0,1,6,10.51c-.12-.09-.25-.18-.36-.28A1,1,0,0,0,5.36,10,3.75,3.75,0,0,0,7,11.87a2.74,2.74,0,0,0,1.08.31,2.26,2.26,0,0,0,1.17-.26h0a11.91,11.91,0,0,0-1.68,2.35v0c-.18.2-.32.5-.54.64a3.26,3.26,0,0,0-1.2,1.32,2.85,2.85,0,0,0-.4,1.2.07.07,0,0,0,.13,0,2.77,2.77,0,0,1,1.12-1.35.07.07,0,0,1,.09.07,1.19,1.19,0,0,1,0,.33c0,.15-.22.27-.31.39a4.87,4.87,0,0,0-.59.95,4.37,4.37,0,0,0-.37,1.05,2.45,2.45,0,0,0-.07,1,3.66,3.66,0,0,0,.22-.58,5.14,5.14,0,0,1,.29-.51,5.4,5.4,0,0,1,.71-.94c0,.16,0,.31,0,.46a1,1,0,0,0-.08.11,2.1,2.1,0,0,0-.33.65,2.53,2.53,0,0,0-.1,1.44c.08-.07.08-.31.12-.41s.08-.17.11-.26a1.45,1.45,0,0,1,.34-.44.07.07,0,0,1,.1,0l.08.29s0,.08,0,.11a3.82,3.82,0,0,0,.18.51,6.89,6.89,0,0,0,1.24,2.09,1.78,1.78,0,0,1,.08,2.72L14.49,28Zm6.12-27V1.73S22.3,1.78,22.28,1.79Zm-6,11v.05A0,0,0,0,1,16.32,12.79ZM5.61,10.41s0,0,0,0Z"/></svg>